# AST/ASF file generated using VICON BodyLanguage
# -----------------------------------------------
:version 1.10
:name VICON
:units
  mass 1.0
  length 0.45
  angle deg
:documentation
   .ast/.asf automatically generated from VICON data using
   VICON BodyBuilder and BodyLanguage model FoxedUp or BRILLIANT.MOD
:root
   order TX TY TZ RX RY RZ
   axis XYZ
   position 0 0 0  
   orientation 0 0 0 
:bonedata
  begin
     id 1 
     name lhipjoint
     direction 0.606768 -0.715223 0.346827 
     length 2.41543 
     axis 0 0 0  XYZ
  end
  begin
     id 2 
     name lfemur
     direction 0.34202 -0.939693 0  
     length 7.2778  
     axis 0 0 20  XYZ
    dof rx ry rz
    limits (-160.0 20.0)
           (-70.0 70.0)
           (-60.0 70.0)
  end
  begin
     id 3 
     name ltibia
     direction 0.34202 -0.939693 0   
     length 7.61811   
     axis 0 0 20   XYZ
    dof rx
    limits (-10.0 170.0)
  end
  begin
     id 4 
     name lfoot
     direction 0.0823924 -0.226371 0.97055   
     length 2.33618   
     axis -90 7.62852e-016 20   XYZ
    dof rx rz
    limits (-45.0 90.0)
           (-70.0 20.0)
  end
  begin
     id 5 
     name ltoes
     direction 1.53554e-011 -4.21934e-011 1   
     length 1.17015   
     axis -90 7.62852e-016 20   XYZ
    dof rx
    limits (-90.0 20.0)
  end
  begin
     id 6 
     name rhipjoint
     direction -0.6077 -0.714582 0.346516   
     length 2.4176  
     axis 0 0 0  XYZ 
  end
  begin
     id 7 
     name rfemur
     direction -0.34202 -0.939693 0   
     length 7.28127   
     axis 0 0 -20   XYZ
    dof rx ry rz
    limits (-160.0 20.0)
           (-70.0 70.0)
           (-70.0 60.0)
  end
  begin
     id 8 
     name rtibia
     direction -0.34202 -0.939693 0   
     length 7.77648   
     axis 0 0 -20   XYZ
    dof rx
    limits (-10.0 170.0)
 end
 begin
     id 9 
     name rfoot
     direction -0.0809463 -0.222398 0.97159   
     length 2.37533  
     axis -90 -7.62852e-016 -20   XYZ
    dof rx rz
    limits (-45.0 90.0)
           (-20.0 70.0)
  end
  begin
     id 10 
     name rtoes
     direction -1.53568e-011 -4.21714e-011 1   
     length 1.18972   
     axis -90 -7.62852e-016 -20   XYZ
    dof rx
    limits (-90.0 20.0)
  end
  begin
     id 11 
     name lowerback
     direction 0.010968 0.991932 -0.126297   
     length 2.21698   
     axis 0 0 0   XYZ
    dof rx ry rz
    limits (-20.0 45.0)
           (-30.0 30.0)
           (-30.0 30.0)
  end
  begin
     id 12 
     name upperback
     direction 0.0167007 0.997503 -0.0686276   
     length 2.22371   
     axis 0 0 0   XYZ
    dof rx ry rz
    limits (-20.0 45.0)
           (-30.0 30.0)
           (-30.0 30.0)
  end
  begin
     id 13 
     name thorax
     direction 0.0111721 0.999885 -0.0102878   
     length 2.25242   
     axis 0 0 0   XYZ
    dof rx ry rz
    limits (-20.0 45.0)
           (-30.0 30.0)
           (-30.0 30.0)
  end
  begin
     id 14 
     name lowerneck
     direction -0.0120265 0.990428 0.137508   
     length 1.57674   
     axis 0 0 0   XYZ
    dof rx ry rz
    limits (-20.0 45.0)
           (-30.0 30.0)
           (-30.0 30.0)
  end
  begin
     id 15 
     name upperneck
     direction 0.0175669 0.998907 0.0433089   
     length 1.5618   
     axis 0 0 0   XYZ
    dof rx ry rz
    limits (-20.0 45.0)
           (-30.0 30.0)
           (-30.0 30.0)
  end
  begin
     id 16
     name head
     direction 0.00754609 0.99997 0.00185367  
     length 1.60579  
     axis 0 0 0   XYZ
    dof rx ry rz
    limits (-20.0 45.0)
           (-30.0 30.0)
           (-30.0 30.0)
  end
  begin
     id 17 
     name lclavicle
     direction 0.885866 0.429166 -0.176231  
     length 3.44967  
     axis 0 0 0   XYZ
    dof ry rz
    limits (-20.0 10.0)
           (0.0 20.0)
  end
  begin
     id 18 
     name lhumerus
     direction 1 -4.48973e-011 -1.90255e-027   
     length 5.20607   
     axis 180 -30 -90   XYZ
    dof rx ry rz
    limits (-60.0 90.0)
           (-90.0 90.0)
           (-90.0 90.0)
  end
  begin
     id 19
     name lradius
     direction 1 -4.48956e-011 9.87925e-027   
     length 3.39961   
     axis 180 -30 -90   XYZ
    dof rx
    limits (-10.0 170.0)
  end
  begin
     id 20
     name lwrist
     direction 1 -4.48985e-011 1.73247e-026   
     length 1.6998   
     axis -9.60847e-015 90 90   XYZ
    dof ry
    limits (-180.0 0.0)
 end
  begin
     id 21 
     name lhand
     direction 1 -4.48798e-011 3.46119e-026   
     length 0.519693   
     axis -2.21073e-014 90 90   XYZ
    dof rx rz
    limits (-90.0 90.0)
           (-45.0 45.0)
  end
  begin
     id 22 
     name lfingers
     direction 1 -4.48938e-011 6.92797e-026   
     length 0.41899   
     axis -4.42155e-014 90 90   XYZ
    dof rx
    limits (0.0 90.0)
  end
  begin
     id 23
     name lthumb
     direction 0.707107 -6.34952e-011 0.707107   
     length 0.601588   
     axis -90 45 6.0103e-014   XYZ
    dof rx rz
    limits (-45.0 45.0)
           (-45.0 45.0)
  end
  begin
     id 24 
     name rclavicle
     direction -0.866736 0.456792 -0.200276   
     length 3.45032  
     axis 0 0 0   XYZ 
    dof ry rz
    limits (-10.0 20.0)
           (-20.0 0.0)
  end
  begin
     id 25 
     name rhumerus
     direction -1 -4.4897e-011 8.65094e-028  
     length 5.32214   
     axis 180 30 90   XYZ
    dof rx ry rz
    limits (-90.0 60.0)
           (-90.0 90.0)
           (-90.0 90.0)
  end
  begin
     id 26 
     name rradius
     direction -1 -4.48987e-011 1.08427e-026   
     length 3.51208   
     axis 180 30 90   XYZ
    dof rx
    limits (-10.0 170.0)
  end
  begin
     id 27 
     name rwrist
     direction -1 -4.48961e-011 1.73222e-026   
     length 1.75604   
     axis -9.60847e-015 -90 -90   XYZ
    dof ry
    limits (-180.0 0.0)
  end
  begin
     id 28
     name rhand
     direction -1 -4.48895e-011 3.46314e-026   
     length 0.586681   
     axis -2.21073e-014 -90 -90   XYZ
    dof rx rz
    limits (-90.0 90.0)
           (-45.0 45.0)
  end
  begin
     id 29
     name rfingers
     direction -1 -4.48968e-011 6.92916e-026   
     length 0.472997   
     axis -4.42155e-014 -90 -90   XYZ
    dof rx
    limits (0.0 90.0)
  end
  begin
     id 30
     name rthumb
     direction -0.707107 -6.34848e-011 0.707107   
     length 0.679133   
     axis -90 -45 -6.0103e-014   XYZ
    dof rx rz
    limits (-45.0 45.0)
           (-45.0 45.0)
  end
:hierarchy
  begin
    root lhipjoint rhipjoint lowerback
    lhipjoint lfemur
    lfemur ltibia
    ltibia lfoot
    lfoot ltoes
    rhipjoint rfemur
    rfemur rtibia
    rtibia rfoot
    rfoot rtoes
    lowerback upperback
    upperback thorax
    thorax lowerneck lclavicle rclavicle
    lowerneck upperneck
    upperneck head
    lclavicle lhumerus
    lhumerus lradius
    lradius lwrist
    lwrist lhand lthumb
    lhand lfingers
    rclavicle rhumerus
    rhumerus rradius
    rradius rwrist
    rwrist rhand rthumb
    rhand rfingers
  end

#!OML:ASF H:\Dans Jumps\Project 1\Capture day 1\Session 1\subject.ASF
:FULLY-SPECIFIED
:DEGREES
43
root 0.0340312 17.3708 -15.0716 14.1217 -0.771879 -2.26194
lowerback 8.76033 -0.245891 0.647892
upperback 8.16831 -0.328004 1.61202
thorax 3.58743 -0.183367 1.32553
lowerneck -11.0322 0.683045 -0.932839
upperneck 25.5184 1.22883 -0.327147
head 9.90186 0.435064 0.186775
rclavicle -1.93815e-015 1.04362e-014
rhumerus -28.1156 -4.3785 -85.0629
rradius 35.5953
rwrist 17.5615
rhand -19.8362 -26.5661
rfingers 7.12502
rthumb 6.49798 -56.4464
lclavicle -1.93815e-015 1.04362e-014
lhumerus -26.654 -9.69627 92.1424
lradius 33.977
lwrist 24.0416
lhand -30.4964 -4.03911
lfingers 7.12502
lthumb -3.79684 25.9068
rfemur -31.9334 -4.24388 21.4639
rtibia 32.1836
rfoot -13.3421 1.74945
rtoes 12.8029
lfemur -31.5449 8.15951 -18.5822
ltibia 31.652
lfoot -12.4018 3.62639
ltoes 3.82614
44
root 0.0360333 17.3744 -15.0676 14.1003 -0.780516 -2.248
lowerback 8.71668 -0.241786 0.64632
upperback 8.15705 -0.323317 1.61679
thorax 3.59945 -0.181213 1.33088
lowerneck -11.0565 0.681724 -0.948849
upperneck 25.5673 1.22671 -0.309416
head 9.92391 0.434155 0.195726
rclavicle -6.60959e-015 -1.2921e-015
rhumerus -28.0736 -4.34102 -85.1236
rradius 35.6401
rwrist 17.549
rhand -19.8336 -26.5464
rfingers 7.12502
rthumb 6.50046 -56.4266
lclavicle -6.60959e-015 -1.2921e-015
lhumerus -26.6123 -9.77539 92.1971
lradius 34.0942
lwrist 23.9442
lhand -30.3964 -3.8601
lfingers 7.12502
lthumb -3.70024 26.0875
rfemur -31.8465 -4.21038 21.4292
rtibia 32.099
rfoot -13.3254 1.71488
rtoes 12.8128
lfemur -31.4481 8.17825 -18.604
ltibia 31.5419
lfoot -12.3786 3.60611
ltoes 3.83603
45
root 0.0383624 17.378 -15.0635 14.0812 -0.79086 -2.23553
lowerback 8.67123 -0.237726 0.648068
upperback 8.14645 -0.318554 1.62114
thorax 3.61316 -0.178857 1.33394
lowerneck -11.0868 0.676967 -0.970366
upperneck 25.6219 1.22033 -0.288584
head 9.94914 0.431057 0.206261
rclavicle 1.2424e-015 -9.93923e-016
rhumerus -28.0331 -4.30349 -85.182
rradius 35.6884
rwrist 17.5446
rhand -19.8169 -26.5431
rfingers 7.12502
rthumb 6.51654 -56.4228
lclavicle 1.2424e-015 -9.93923e-016
lhumerus -26.5712 -9.84979 92.2548
lradius 34.1969
lwrist 23.8134
lhand -30.3166 -3.6968
lfingers 7.12502
lthumb -3.62319 26.2522
rfemur -31.7635 -4.17973 21.3962
rtibia 32.0169
rfoot -13.3095 1.68375
rtoes 12.8193
lfemur -31.3548 8.1947 -18.6249
ltibia 31.4353
lfoot -12.356 3.58923
ltoes 3.84656
46
root 0.0409661 17.3814 -15.0596 14.0675 -0.802753 -2.22402
lowerback 8.62197 -0.233697 0.653356
upperback 8.13493 -0.31366 1.62359
thorax 3.62796 -0.176209 1.33302
lowerneck -11.1166 0.671383 -0.989137
upperneck 25.6763 1.21274 -0.269927
head 9.97431 0.427429 0.215432
rclavicle -2.38542e-015 -3.77691e-015
rhumerus -27.9957 -4.26585 -85.2409
rradius 35.7397
rwrist 17.5453
rhand -19.8025 -26.5389
rfingers 7.12502
rthumb 6.53052 -56.4182
lclavicle -2.38542e-015 -3.77691e-015
lhumerus -26.5332 -9.91502 92.311
lradius 34.2891
lwrist 23.6466
lhand -30.3043 -3.67653
lfingers 7.12502
lthumb -3.61135 26.2726
rfemur -31.6907 -4.15433 21.3654
rtibia 31.9398
rfoot -13.2939 1.65882
rtoes 12.8246
lfemur -31.2711 8.20836 -18.6459
ltibia 31.3343
lfoot -12.3326 3.57693
ltoes 3.85144
47
root 0.0438011 17.3844 -15.0558 14.0542 -0.814706 -2.21197
lowerback 8.57451 -0.230124 0.659643
upperback 8.1251 -0.309304 1.62512
thorax 3.64357 -0.17376 1.33063
lowerneck -11.1516 0.666916 -0.997954
upperneck 25.7338 1.20896 -0.267672
head 10.0018 0.424625 0.217641
rclavicle -2.18663e-015 -1.39149e-014
rhumerus -27.9563 -4.22611 -85.2985
rradius 35.7909
rwrist 17.544
rhand -19.787 -26.5327
rfingers 7.12502
rthumb 6.54543 -56.4115
lclavicle -2.18663e-015 -1.39149e-014
lhumerus -26.4935 -9.9644 92.3628
lradius 34.3732
lwrist 23.4285
lhand -30.229 -3.49054
lfingers 7.12502
lthumb -3.53857 26.4598
rfemur -31.623 -4.13761 21.3356
rtibia 31.87
rfoot -13.2803 1.64175
rtoes 12.8265
lfemur -31.1917 8.21802 -18.6674
ltibia 31.2408
lfoot -12.3101 3.56884
ltoes 3.84934
48
root 0.0467879 17.3871 -15.0523 14.0404 -0.826704 -2.20043
lowerback 8.53431 -0.227479 0.666235
upperback 8.11428 -0.306016 1.62641
thorax 3.65414 -0.171819 1.32791
lowerneck -11.1863 0.663813 -0.999461
upperneck 25.7913 1.20833 -0.276345
head 10.0293 0.42274 0.215134
rclavicle 7.25564e-015 -1.98785e-015
rhumerus -27.9212 -4.17671 -85.3555
rradius 35.844
rwrist 17.5342
rhand -19.7867 -26.5201
rfingers 7.12502
rthumb 6.54569 -56.3989
lclavicle 7.25564e-015 -1.98785e-015
lhumerus -26.4543 -9.99038 92.4074
lradius 34.4494
lwrist 23.141
lhand -30.215 -3.40952
lfingers 7.12502
lthumb -3.52512 26.5411
rfemur -31.5614 -4.12524 21.307
rtibia 31.809
rfoot -13.2685 1.62931
rtoes 12.8296
lfemur -31.1174 8.22349 -18.6878
ltibia 31.1563
lfoot -12.2895 3.56579
ltoes 3.84669
49
root 0.0498453 17.3892 -15.0493 14.0263 -0.837099 -2.1887
lowerback 8.50301 -0.22583 0.67195
upperback 8.10197 -0.303909 1.62781
thorax 3.65827 -0.170505 1.32588
lowerneck -11.2189 0.661729 -0.996682
upperneck 25.8439 1.20999 -0.292081
head 10.0549 0.42155 0.209654
rclavicle 3.8763e-015 6.95746e-016
rhumerus -27.8904 -4.11792 -85.4118
rradius 35.9
rwrist 17.5116
rhand -19.7892 -26.5086
rfingers 7.12502
rthumb 6.54336 -56.3876
lclavicle 3.8763e-015 6.95746e-016
lhumerus -26.4182 -10.0017 92.4481
lradius 34.5148
lwrist 22.7925
lhand -30.2401 -3.33428
lfingers 7.12502
lthumb -3.54929 26.6159
rfemur -31.5065 -4.11748 21.2792
rtibia 31.7574
rfoot -13.2584 1.61944
rtoes 12.8302
lfemur -31.05 8.22436 -18.7078
ltibia 31.0814
lfoot -12.2703 3.56792
ltoes 3.84137
